<svg xmlns="http://www.w3.org/2000/svg" viewBox="0 0 1200 900" width="1200" height="900">
  <rect width="1200" height="900" fill="#FFFFFF"/>

  <!-- masthead -->
  <line x1="60" y1="48" x2="1140" y2="48" stroke="#0F1740" stroke-width="1" opacity="0.15"/>
  <text x="60" y="38" fill="#0F1740" font-family="Georgia, serif" font-size="13" letter-spacing="3">ITER ADVISORS</text>
  <text x="1140" y="38" fill="#0F1740" font-family="Georgia, serif" font-size="12.4" letter-spacing="3" text-anchor="end">VOL. 01 · 2026 · No. 19</text>
  <line x1="60" y1="68" x2="1140" y2="68" stroke="#0F1740" stroke-width="3"/>

  <!-- kicker + category badge -->
  <text x="60" y="115" fill="#C9A227" font-family="-apple-system, Inter, sans-serif" font-size="11.8" font-weight="600" letter-spacing="3">CLIENT CASE</text>
  <rect x="60" y="135" width="127" height="34" rx="17" fill="#FAEDC9"/>
  <text x="123.5" y="157" fill="#7A5A0E" font-family="-apple-system, Inter, sans-serif" font-size="10.9" font-weight="600" letter-spacing="1.6" text-anchor="middle">CLIENT CASE</text>

  <!-- huge serif title -->
  <g font-family="Georgia, 'Times New Roman', serif" fill="#0F1740">
    <text x="60" y="230" font-size="72" font-weight="500" letter-spacing="-2">In the</text>
    <text x="60" y="308" font-size="46.1" font-weight="500" letter-spacing="-2">behind the scenes of</text>
    <text x="60" y="386" font-size="72" font-weight="500" letter-spacing="-2">Happy Scribe</text>
  </g>

  <!-- accent rule under title -->
  <line x1="60" y1="404" x2="120" y2="404" stroke="#C9A227" stroke-width="4"/>

  <!-- italic subtitle -->
  <g font-family="Georgia, serif" fill="#4B5563" font-style="italic">
    <text x="60" y="438" font-size="24" font-weight="400">How a scale-up structured its</text>
    <text x="60" y="470" font-size="24" font-weight="400">finance</text>
  </g>

  <!-- illustration block, right -->
  <g transform="translate(780 220)">
    <rect x="0" y="0" width="360" height="360" rx="8" fill="#FAEDC9"/>
    <g transform="translate(70 70)">
      <g stroke="#7A5A0E" stroke-width="2.4" fill="none" stroke-linecap="round" stroke-linejoin="round">
      <path d="M 66 44 L 154 44 L 149.60000000000002 110 C 145.20000000000002 132, 121.00000000000001 136.4, 110 136.4 C 99 136.4, 74.80000000000001 132, 70.4 110 Z"/>
      <path d="M 66 61.60000000000001 C 44 61.60000000000001, 39.6 92.39999999999999, 70.4 99"/>
      <path d="M 154 61.60000000000001 C 176 61.60000000000001, 180.39999999999998 92.39999999999999, 149.60000000000002 99"/>
      <line x1="110" y1="136.4" x2="110" y2="165"/>
      <line x1="83.6" y1="180.39999999999998" x2="136.4" y2="180.39999999999998"/>
      <line x1="92.39999999999999" y1="165" x2="127.6" y2="165"/>
    </g>
    </g>
    <rect x="0" y="0" width="92" height="30" fill="#C9A227"/>
    <text x="46" y="20" fill="white" font-family="-apple-system, Inter, sans-serif" font-size="11" font-weight="600" letter-spacing="2.4" text-anchor="middle">FIG. 19</text>
  </g>

  <!-- bottom rule + brand stamp -->
  <line x1="60" y1="820" x2="1140" y2="820" stroke="#0F1740" stroke-width="1" opacity="0.15"/>
  <circle cx="78" cy="858" r="12" fill="#6C3AED"/>
  <text x="100" y="864" fill="#0F1740" font-family="Georgia, serif" font-style="italic" font-size="13.8">Iter Advisors · Fractional CFO &amp; HR services</text>
  <text x="1140" y="864" fill="#0F1740" opacity="0.55" font-family="-apple-system, Inter, sans-serif" font-size="11.9" text-anchor="end" letter-spacing="0.5">iteradvisors.com/en/ressources/blog</text>
</svg>
